<svg data-name="Layer 1" xmlns="http://www.w3.org/2000/svg" viewBox="0 0 62.397 78.489"><path d="M62.397 42c0-5.212-2.367-7.775-3.598-9.96a56.01 56.01 0 01-4.2-17.64c-.067-4.905-1.693-12.446-2.88-14.4-.865 0-1.522 7.78-2.28 11.64-1.428 7.042-3.766 8.934-4.439 9-.758-2.81-4.113-7.364-13.677-7.725-.048-.017-.083-.03-.125-.043-.043.013-.078.026-.126.043-9.561.36-12.918 4.916-13.675 7.724-.673-.065-3.01-1.957-4.438-9C12.199 7.782 11.543 0 10.679 0 9.49 1.954 7.865 9.495 7.799 14.4a56.057 56.057 0 01-4.2 17.64C2.367 34.225 0 36.788 0 42c0 3.745 5.2 7.204 5.639 11.399.125 1.223-.032 2.35.12 3.361 2.003 17.484 17.867 21.73 25.438 21.73 7.574 0 23.439-4.244 25.44-21.729.152-1.011-.004-2.138.12-3.361.44-4.195 5.64-7.652 5.64-11.398zm-29.16-15.24a20.633 20.633 0 00-4.08 0c-1.731.34-5.76.988-5.76-1.08 0-1.068 6.72-2.295 7.8-2.295S38.998 24.613 39 25.68c0 2.069-4.028 1.42-5.762 1.08z"/></svg>