<svg data-name="Layer 1" xmlns="http://www.w3.org/2000/svg" viewBox="0 0 57 97.681"><path d="M51.121 15.24c-.395-5.453-.61-10.852-2.52-15.24-.765 0-1.53 7.314-2.28 10.92-1.477 7.14-3.714 8.283-4.44 8.28-.858-3.857-4.384-4.241-7.8-5.88a11.097 11.097 0 00-3.602-1.199 14.578 14.578 0 00-1.979.116 14.4 14.4 0 00-1.98-.116 11.12 11.12 0 00-3.601 1.2c-3.416 1.638-6.941 2.02-7.8 5.88-.725.003-2.964-1.141-4.44-8.281C9.929 7.315 9.164 0 8.399 0 6.49 4.389 6.274 9.787 5.88 15.24 5 38.778 0 51.528 0 62.4c0 26.066 11.708 35.28 28.5 35.28 16.791 0 28.5-9.214 28.5-35.28.001-10.872-4.999-23.622-5.879-47.16zm-16.68 9.719c-2.794 1.174-5.354-.709-5.88-.719-.018 0-.042.006-.06.006s-.042-.007-.06-.006c-.527.01-3.086 1.894-5.88.719-.785-3.583 2.396-4.042 5.94-3.904 3.545-.138 6.725.322 5.94 3.904z"/></svg>