<svg data-name="Layer 1" xmlns="http://www.w3.org/2000/svg" viewBox="0 0 44.657 104.781"><path d="M43.39 0h-.119c-2.816 21.525-5.382 22.56-6.96 22.68-1.428.11-3.644-1.772-4.922-2.52a15.887 15.887 0 00-9.06-2.545 15.898 15.898 0 00-9.062 2.545c-1.277.748-3.494 2.63-4.92 2.52-1.58-.12-4.143-1.155-6.959-22.68H1.27C-.804 12.208-.29 50.203 2.47 63.6c2.61 18.52 10.11 35.104 13.439 39.6.683 1.038 3.533 1.566 6.42 1.581 2.888-.015 5.738-.543 6.422-1.582 3.329-4.495 10.829-21.08 13.44-39.6C44.946 50.204 45.461 12.209 43.39 0zM22.328 28.15a100.207 100.207 0 00-10.142.53c1.135-1.754 8.991-3.24 10.142-3.45 1.15.21 9.006 1.696 10.14 3.45a100.232 100.232 0 00-10.14-.53z"/></svg>