<svg data-name="Layer 1" xmlns="http://www.w3.org/2000/svg" viewBox="0 0 57.681 68.64"><path d="M51.6 22.2c.12-1.696.474-3.51.72-5.4.703-5.426 1.596-11.67-.12-16.8h-.241C50.637 3.743 50.7 8.348 49.8 12.36a19.72 19.72 0 01-3.24 7.56 4.364 4.364 0 01-1.92 1.802c-.664-3.922-4.284-4.944-7.681-6.362-2.129-.887-3.97-2.015-6.118-2.159a10.776 10.776 0 00-2 .23 10.618 10.618 0 00-2-.23c-2.149.145-3.99 1.272-6.12 2.16-3.396 1.417-7.017 2.439-7.68 6.36a4.36 4.36 0 01-1.921-1.8 19.718 19.718 0 01-3.238-7.56C6.983 8.347 7.047 3.742 5.723 0h-.24c-1.719 5.13-.826 11.374-.12 16.8.244 1.891.597 3.704.718 5.4.792 11.052-6.95 23.12-6 28.92.93 7.53 8.396 9.397 14.16 12.36 4.347 2.236 8.313 4.95 13.321 5.16h2.557c5.01-.21 8.976-2.925 13.32-5.16 5.765-2.964 13.23-4.83 14.16-12.36.953-5.8-6.792-17.868-6-28.92zm-22.758 3.745a35.917 35.917 0 01-7.16-.505c.663-2.051 4.034-1.56 7.08-1.56h.159c3.046 0 6.417-.491 7.079 1.56a35.976 35.976 0 01-7.158.505z"/></svg>